<svg width="96" height="96" viewBox="0 0 96 96" fill="none" xmlns="http://www.w3.org/2000/svg">
<path fill-rule="evenodd" clip-rule="evenodd" d="M61.3333 0V5.33333C61.3333 8.816 63.56 11.7813 66.6667 12.88V16H64C63.2928 16 62.6145 16.281 62.1144 16.781C61.6143 17.2811 61.3333 17.9594 61.3333 18.6667V34.6667C61.3333 35.3739 61.6143 36.0522 62.1144 36.5523C62.6145 37.0524 63.2928 37.3333 64 37.3333H74.6667C75.3739 37.3333 76.0522 37.0524 76.5523 36.5523C77.0524 36.0522 77.3333 35.3739 77.3333 34.6667V18.6667C77.3333 17.9594 77.0524 17.2811 76.5523 16.781C76.0522 16.281 75.3739 16 74.6667 16H72V13.3333H85.3333V45.5093H37.6267C37.5186 45.5107 37.4113 45.4901 37.3114 45.4489C37.2115 45.4076 37.121 45.3465 37.0453 45.2693L36.0693 44.2827L37.0533 43.304C37.9876 42.3706 38.7288 41.2622 39.2346 40.0422C39.7404 38.8222 40.0009 37.5146 40.0011 36.1939C40.0014 34.8732 39.7414 33.5654 39.2361 32.3453C38.7307 31.1251 37.9899 30.0165 37.056 29.0827L32.256 24.2827C31.3229 23.348 30.2148 22.6064 28.995 22.1002C27.7752 21.5939 26.4677 21.333 25.147 21.3322C23.8263 21.3315 22.5184 21.591 21.2981 22.0958C20.0777 22.6007 18.9688 23.3411 18.0347 24.2747L16.1573 26.152C14.3421 25.6343 12.4212 25.6138 10.5953 26.0928C8.76952 26.5717 7.10596 27.5325 5.77867 28.8747C3.78477 30.8888 2.66631 33.6085 2.66631 36.4427C2.66631 39.2768 3.78477 41.9965 5.77867 44.0107L8 46.248V74.6667H0V80H8.13333C6.809 81.2976 5.90115 82.9602 5.52554 84.7758C5.14992 86.5914 5.32358 88.4778 6.02435 90.1943C6.72513 91.9109 7.92127 93.3798 9.46024 94.4138C10.9992 95.4478 12.8113 96 14.6653 96C16.5194 96 18.3315 95.4478 19.8704 94.4138C21.4094 93.3798 22.6055 91.9109 23.3063 90.1943C24.0071 88.4778 24.1807 86.5914 23.8051 84.7758C23.4295 82.9602 22.5217 81.2976 21.1973 80H74.8027C73.4783 81.2976 72.5705 82.9602 72.1949 84.7758C71.8193 86.5914 71.9929 88.4778 72.6937 90.1943C73.3945 91.9109 74.5906 93.3798 76.1296 94.4138C77.6685 95.4478 79.4806 96 81.3347 96C83.1887 96 85.0008 95.4478 86.5398 94.4138C88.0787 93.3798 89.2749 91.9109 89.9756 90.1943C90.6764 88.4778 90.8501 86.5914 90.4745 84.7758C90.0989 82.9602 89.191 81.2976 87.8667 80H96V74.6667H85.3333V66.6667H85.5093C91.3067 66.6667 96 61.9307 96 56.088C96.0039 54.2181 95.5124 52.3805 94.5756 50.7622C93.6388 49.1439 92.2901 47.8026 90.6667 46.8747V13.3333C90.6667 11.9188 90.1048 10.5623 89.1046 9.5621C88.1044 8.5619 86.7478 8 85.3333 8H69.3333C68.6261 8 67.9478 7.71905 67.4477 7.21895C66.9476 6.71885 66.6667 6.04058 66.6667 5.33333V0H61.3333ZM20.8693 28.9813L32.3093 40.5013L33.2827 39.5307C33.7213 39.0923 34.0693 38.5719 34.3067 37.999C34.5441 37.4261 34.6662 36.8121 34.6662 36.192C34.6662 35.5719 34.5441 34.9579 34.3067 34.385C34.0693 33.8121 33.7213 33.2917 33.2827 32.8533L28.4827 28.0533C28.0447 27.6144 27.5245 27.266 26.9518 27.0281C26.3791 26.7903 25.7652 26.6676 25.1451 26.6671C24.525 26.6666 23.9109 26.7883 23.3378 27.0252C22.7648 27.2622 22.244 27.6097 21.8053 28.048L20.8693 28.9813ZM80 74.6667H13.3333V51.616L27.4 65.7787C27.9653 66.3467 28.728 66.6667 29.5253 66.6667H80V74.6667Z" fill="#C8FFCC"/>
</svg>
