<svg width="133" height="133" viewBox="0 0 133 133" fill="none" xmlns="http://www.w3.org/2000/svg">
<path d="M25.6666 39.3333V29.5C25.6666 26.892 26.7026 24.3909 28.5467 22.5467C30.3909 20.7026 32.892 19.6666 35.5 19.6666H45.3333M25.6666 78.6666V88.5C25.6666 91.1079 26.7026 93.6091 28.5467 95.4532C30.3909 97.2973 32.892 98.3333 35.5 98.3333H45.3333M84.6666 19.6666H94.5C97.1079 19.6666 99.6091 20.7026 101.453 22.5467C103.297 24.3909 104.333 26.892 104.333 29.5V39.3333M84.6666 98.3333H94.5C97.1079 98.3333 99.6091 97.2973 101.453 95.4532C103.297 93.6091 104.333 91.1079 104.333 88.5V78.6666M55.1666 83.5833V78.6666C55.1666 76.0587 56.2026 73.5575 58.0467 71.7134C59.8909 69.8693 62.392 68.8333 65 68.8333M65 68.8333C67.6079 68.8333 70.1091 69.8693 71.9532 71.7134C73.7973 73.5575 74.8333 76.0587 74.8333 78.6666V83.5833M65 68.8333V54.0833M45.3333 49.1666C48.6111 52.4444 51.8888 54.0833 55.1666 54.0833H74.8333C78.1111 54.0833 81.3889 52.4444 84.6666 49.1666M60.0833 39.3333C60.0833 40.6373 60.6013 41.8878 61.5234 42.8099C62.4454 43.732 63.696 44.25 65 44.25C66.3039 44.25 67.5545 43.732 68.4766 42.8099C69.3986 41.8878 69.9166 40.6373 69.9166 39.3333C69.9166 38.0293 69.3986 36.7787 68.4766 35.8567C67.5545 34.9346 66.3039 34.4166 65 34.4166C63.696 34.4166 62.4454 34.9346 61.5234 35.8567C60.6013 36.7787 60.0833 38.0293 60.0833 39.3333Z" stroke="#14AE5C" stroke-width="10.6667" stroke-linecap="round" stroke-linejoin="round"/>
</svg>
