<svg width="40" height="40" viewBox="0 0 40 40" fill="none" xmlns="http://www.w3.org/2000/svg">
<path d="M16.9549 3.30827C19.5485 3.30799 22.0885 4.04681 24.2773 5.43819C26.4661 6.82957 28.2131 8.81589 29.3136 11.1644C30.4141 13.513 30.8226 16.1265 30.4911 18.6989C30.1597 21.2712 29.102 23.6959 27.4421 25.6887L36.8541 35.1008C37.0175 35.2524 37.1368 35.4453 37.1997 35.6591C37.2626 35.8729 37.2666 36.0997 37.2114 36.3156C37.1562 36.5315 37.0438 36.7285 36.886 36.8859C36.7283 37.0433 36.5309 37.1552 36.3149 37.2098C36.0992 37.2649 35.8727 37.261 35.6591 37.1984C35.4455 37.1358 35.2526 37.0169 35.1008 36.8542L25.6887 27.4421C24.0045 28.8444 22.0074 29.8205 19.8662 30.2878C17.725 30.755 15.5028 30.6997 13.3875 30.1265C11.2722 29.5533 9.3261 28.4791 7.71375 26.9948C6.10141 25.5104 4.87028 23.6595 4.1245 21.5988C3.37873 19.538 3.14024 17.3279 3.42922 15.1555C3.7182 12.983 4.52614 10.9122 5.7847 9.11799C7.04326 7.32383 8.71542 5.85918 10.6597 4.84793C12.604 3.83667 14.7633 3.30856 16.9549 3.30827ZM5.78946 16.9549C5.78946 18.4212 6.07827 19.8731 6.63938 21.2277C7.2005 22.5824 8.02294 23.8132 9.05974 24.85C10.0965 25.8869 11.3274 26.7093 12.6821 27.2704C14.0367 27.8315 15.4886 28.1203 16.9549 28.1203C18.4212 28.1203 19.8731 27.8315 21.2277 27.2704C22.5824 26.7093 23.8132 25.8869 24.85 24.85C25.8868 23.8132 26.7093 22.5824 27.2704 21.2277C27.8315 19.8731 28.1203 18.4212 28.1203 16.9549C28.1203 13.9936 26.944 11.1537 24.85 9.05976C22.7561 6.96583 19.9161 5.78948 16.9549 5.78948C13.9936 5.78948 11.1537 6.96583 9.05974 9.05976C6.96582 11.1537 5.78946 13.9936 5.78946 16.9549Z" fill="black"/>
</svg>
